<svg width="256" height="256" viewBox="0 0 256 256" fill="none" xmlns="http://www.w3.org/2000/svg" role="img" aria-labelledby="title desc">
  <title id="title">shipbrief logo</title>
  <desc id="desc">A luminous abstract mark for daily commit briefings.</desc>
  <defs>
    <radialGradient id="bg" cx="0" cy="0" r="1" gradientUnits="userSpaceOnUse" gradientTransform="translate(82 64) rotate(52) scale(196)">
      <stop stop-color="#38BDF8"/>
      <stop offset="0.45" stop-color="#111827"/>
      <stop offset="1" stop-color="#020617"/>
    </radialGradient>
    <linearGradient id="beam" x1="60" y1="74" x2="194" y2="190" gradientUnits="userSpaceOnUse">
      <stop stop-color="#A7F3D0"/>
      <stop offset="0.48" stop-color="#38BDF8"/>
      <stop offset="1" stop-color="#818CF8"/>
    </linearGradient>
    <linearGradient id="panel" x1="78" y1="82" x2="174" y2="178" gradientUnits="userSpaceOnUse">
      <stop stop-color="white"/>
      <stop offset="1" stop-color="#CBD5E1"/>
    </linearGradient>
    <filter id="glow" x="20" y="20" width="216" height="216" color-interpolation-filters="sRGB">
      <feGaussianBlur stdDeviation="10" result="blur"/>
      <feColorMatrix in="blur" type="matrix" values="0 0 0 0 0.22 0 0 0 0 0.75 0 0 0 0 1 0 0 0 0.65 0"/>
      <feBlend in="SourceGraphic"/>
    </filter>
  </defs>
  <rect width="256" height="256" rx="64" fill="url(#bg)"/>
  <path d="M54 154C86 72 154 52 206 86" stroke="#1E293B" stroke-width="18" stroke-linecap="round" opacity="0.72"/>
  <path d="M50 154C84 80 148 60 204 92" stroke="url(#beam)" stroke-width="10" stroke-linecap="round" filter="url(#glow)"/>
  <path d="M74 96L130 64L186 96V160L130 192L74 160V96Z" fill="url(#panel)" fill-opacity="0.96"/>
  <path d="M74 96L130 128L186 96M130 128V192" stroke="#0F172A" stroke-width="9" stroke-linecap="round" stroke-linejoin="round" opacity="0.9"/>
  <circle cx="74" cy="154" r="13" fill="#A7F3D0"/>
  <circle cx="186" cy="102" r="13" fill="#818CF8"/>
  <circle cx="130" cy="64" r="11" fill="#38BDF8"/>
</svg>
