<svg width="920" height="260" viewBox="0 0 920 260" fill="none" xmlns="http://www.w3.org/2000/svg" role="img" aria-labelledby="title desc">
  <title id="title">shipbrief workflow</title>
  <desc id="desc">Commits are collected by shipbrief, summarized by an agent, then delivered anywhere.</desc>
  <rect width="920" height="260" rx="24" fill="#0D1117"/>
  <g font-family="Inter, ui-sans-serif, system-ui, -apple-system, BlinkMacSystemFont, Segoe UI, sans-serif">
    <rect x="48" y="54" width="180" height="152" rx="18" fill="#111827" stroke="#334155"/>
    <text x="78" y="96" fill="#F8FAFC" font-size="22" font-weight="700">Commits</text>
    <circle cx="86" cy="130" r="9" fill="#22C55E"/>
    <circle cx="126" cy="130" r="9" fill="#22C55E"/>
    <circle cx="166" cy="130" r="9" fill="#22C55E"/>
    <path d="M86 130h80" stroke="#22C55E" stroke-width="6" stroke-linecap="round"/>
    <text x="78" y="170" fill="#CBD5E1" font-size="16">local git repos</text>

    <path d="M250 130h78" stroke="#64748B" stroke-width="5" stroke-linecap="round"/>
    <path d="M318 112l24 18-24 18" stroke="#64748B" stroke-width="5" stroke-linecap="round" stroke-linejoin="round"/>

    <rect x="366" y="54" width="188" height="152" rx="18" fill="#F8FAFC"/>
    <text x="402" y="96" fill="#0D1117" font-size="24" font-weight="800">shipbrief</text>
    <text x="402" y="128" fill="#334155" font-size="16">read-only collector</text>
    <rect x="402" y="150" width="116" height="28" rx="8" fill="#E2E8F0"/>
    <text x="421" y="170" fill="#0D1117" font-size="14" font-weight="700">TOON / JSON</text>

    <path d="M576 130h78" stroke="#64748B" stroke-width="5" stroke-linecap="round"/>
    <path d="M644 112l24 18-24 18" stroke="#64748B" stroke-width="5" stroke-linecap="round" stroke-linejoin="round"/>

    <rect x="692" y="54" width="180" height="152" rx="18" fill="#111827" stroke="#334155"/>
    <text x="728" y="96" fill="#F8FAFC" font-size="22" font-weight="700">Brief</text>
    <text x="728" y="126" fill="#CBD5E1" font-size="16">agent summary</text>
    <rect x="728" y="150" width="98" height="30" rx="15" fill="#38BDF8"/>
    <text x="750" y="170" fill="#07111F" font-size="14" font-weight="800">anywhere</text>
  </g>
</svg>
